<?xml version="1.0" encoding="UTF-8"?>
<svg xmlns="http://www.w3.org/2000/svg" xmlns:xlink="http://www.w3.org/1999/xlink" width="203px" height="79px" viewBox="0 0 203 79" version="1.1">
<g id="surface1">
<path style=" stroke:none;fill-rule:nonzero;fill:rgb(0%,0%,0%);fill-opacity:1;" d="M 180.425781 14.128906 L 180.425781 14.601562 L 181.765625 14.601562 L 181.789062 16.609375 L 181.808594 18.628906 L 182.863281 18.628906 L 182.878906 16.609375 L 182.902344 14.601562 L 183.578125 14.578125 L 184.242188 14.550781 L 184.242188 13.664062 L 180.425781 13.664062 Z M 180.425781 14.128906 "/>
<path style=" stroke:none;fill-rule:nonzero;fill:rgb(0%,0%,0%);fill-opacity:1;" d="M 185.054688 16.148438 L 185.054688 18.628906 L 186.046875 18.628906 L 186.011719 16.902344 C 185.996094 15.960938 185.988281 15.21875 186.003906 15.261719 C 186.019531 15.300781 186.265625 15.976562 186.539062 16.757812 L 187.050781 18.179688 L 187.320312 18.203125 C 187.472656 18.222656 187.621094 18.203125 187.660156 18.164062 C 187.703125 18.125 187.960938 17.441406 188.246094 16.652344 L 188.765625 15.210938 L 188.726562 16.917969 L 188.683594 18.628906 L 189.683594 18.628906 L 189.683594 13.664062 L 189.074219 13.664062 C 188.742188 13.664062 188.464844 13.671875 188.464844 13.691406 C 188.464844 13.707031 187.597656 16.253906 187.441406 16.675781 C 187.417969 16.742188 187.238281 16.339844 187.050781 15.78125 C 186.859375 15.21875 186.605469 14.527344 186.5 14.234375 L 186.296875 13.707031 L 185.679688 13.683594 L 185.054688 13.65625 Z M 185.054688 16.148438 "/>
<path style=" stroke:none;fill-rule:nonzero;fill:rgb(0%,0%,0%);fill-opacity:1;" d="M 163.863281 31.804688 L 163.863281 44.496094 L 168.085938 44.496094 L 168.085938 19.117188 L 163.863281 19.117188 Z M 163.863281 31.804688 "/>
<path style=" stroke:none;fill-rule:nonzero;fill:rgb(0%,0%,0%);fill-opacity:1;" d="M 172.386719 31.804688 L 172.386719 44.496094 L 176.609375 44.496094 L 176.609375 19.117188 L 172.386719 19.117188 Z M 172.386719 31.804688 "/>
<path style=" stroke:none;fill-rule:nonzero;fill:rgb(0%,0%,0%);fill-opacity:1;" d="M 130.308594 20.261719 C 128.011719 20.441406 125.902344 21.171875 123.992188 22.433594 C 123.050781 23.050781 121.492188 24.628906 120.832031 25.613281 C 119.371094 27.828125 118.691406 30.347656 118.820312 33.105469 C 118.941406 35.578125 119.550781 37.472656 120.890625 39.492188 C 121.539062 40.476562 122.855469 41.828125 123.820312 42.5 C 126.023438 44.039062 128.652344 44.820312 131.625 44.820312 C 135.199219 44.8125 138.25 43.640625 140.476562 41.417969 L 141.085938 40.808594 L 140.152344 39.921875 C 139.640625 39.433594 138.988281 38.832031 138.714844 38.589844 L 138.210938 38.132812 L 137.59375 38.679688 C 135.914062 40.144531 134.296875 40.800781 132.144531 40.890625 C 127.039062 41.109375 123.261719 37.539062 123.261719 32.496094 C 123.261719 30.1875 123.976562 28.300781 125.453125 26.730469 C 127.109375 24.972656 129.164062 24.125 131.789062 24.132812 C 134.019531 24.140625 135.773438 24.792969 137.519531 26.273438 L 138.203125 26.859375 L 138.632812 26.484375 C 138.859375 26.28125 139.5 25.6875 140.054688 25.160156 L 141.050781 24.199219 L 140.679688 23.777344 C 139.882812 22.875 138.414062 21.847656 137.097656 21.269531 C 135.222656 20.457031 132.640625 20.074219 130.308594 20.261719 Z M 130.308594 20.261719 "/>
<path style=" stroke:none;fill-rule:nonzero;fill:rgb(0%,0%,0%);fill-opacity:1;" d="M 22.777344 20.507812 C 21.558594 20.683594 20.257812 21.15625 19.203125 21.800781 C 17.027344 23.125 15.121094 25.535156 14.226562 28.070312 C 13.195312 31 13.269531 34.742188 14.414062 37.621094 C 14.746094 38.46875 15.03125 39.003906 15.574219 39.816406 C 17.035156 42.039062 19.015625 43.625 21.191406 44.324219 C 22.507812 44.746094 22.636719 44.761719 26.585938 44.796875 C 28.640625 44.820312 30.472656 44.8125 30.675781 44.777344 C 30.921875 44.746094 31.132812 44.640625 31.34375 44.445312 C 31.847656 43.988281 31.9375 43.714844 31.976562 42.445312 L 32.015625 41.332031 L 27.476562 41.304688 C 22.410156 41.273438 22.589844 41.289062 21.289062 40.671875 C 20.363281 40.230469 19.96875 39.9375 19.164062 39.125 C 18.019531 37.980469 17.269531 36.683594 16.839844 35.097656 C 16.628906 34.335938 16.613281 34.1875 16.613281 32.617188 C 16.613281 31.066406 16.628906 30.894531 16.832031 30.136719 C 17.628906 27.160156 19.84375 24.800781 22.53125 24.0625 C 23.148438 23.898438 23.394531 23.882812 27.082031 23.839844 C 30.96875 23.792969 30.976562 23.792969 31.238281 23.605469 C 32.226562 22.898438 32.15625 21.117188 31.097656 20.578125 C 30.792969 20.425781 30.644531 20.417969 27.023438 20.425781 C 24.953125 20.433594 23.042969 20.464844 22.777344 20.507812 Z M 22.777344 20.507812 "/>
<path style=" stroke:none;fill-rule:nonzero;fill:rgb(0%,0%,0%);fill-opacity:1;" d="M 32.5625 24.117188 L 32.5625 25.867188 L 35.628906 25.867188 C 37.3125 25.867188 38.828125 25.828125 39.007812 25.792969 C 39.648438 25.640625 40.136719 24.921875 40.144531 24.117188 C 40.144531 23.507812 39.894531 22.945312 39.480469 22.628906 L 39.195312 22.410156 L 35.875 22.386719 L 32.5625 22.359375 Z M 32.5625 24.117188 "/>
<path style=" stroke:none;fill-rule:nonzero;fill:rgb(0%,0%,0%);fill-opacity:1;" d="M 150.503906 26.039062 C 148.117188 26.242188 146.109375 27.183594 144.550781 28.828125 C 143.277344 30.171875 142.539062 31.691406 142.222656 33.59375 C 142.050781 34.585938 142.09375 36.710938 142.292969 37.605469 C 142.644531 39.125 143.382812 40.542969 144.40625 41.621094 C 146.160156 43.484375 148.191406 44.421875 151.054688 44.671875 C 153.523438 44.894531 155.9375 44.390625 157.738281 43.28125 C 158.378906 42.882812 159.476562 41.949219 159.476562 41.792969 C 159.476562 41.746094 158.972656 41.144531 158.363281 40.433594 C 157.753906 39.734375 157.242188 39.148438 157.226562 39.132812 C 157.21875 39.117188 157.039062 39.257812 156.835938 39.433594 C 155.472656 40.695312 153.417969 41.320312 151.398438 41.078125 C 149.894531 40.898438 148.808594 40.425781 147.882812 39.574219 C 147.582031 39.289062 147.207031 38.847656 147.054688 38.589844 C 146.761719 38.101562 146.304688 36.863281 146.371094 36.75 C 146.394531 36.71875 149.636719 36.683594 153.566406 36.683594 L 160.71875 36.683594 L 160.671875 35.195312 C 160.605469 33.179688 160.328125 32 159.621094 30.667969 C 157.902344 27.429688 154.476562 25.6875 150.503906 26.039062 Z M 153.214844 29.730469 C 154.996094 30.300781 156.285156 31.773438 156.59375 33.578125 L 156.652344 33.917969 L 151.488281 33.917969 C 145.542969 33.917969 146.183594 34.042969 146.527344 32.96875 C 147.109375 31.097656 148.597656 29.835938 150.5625 29.535156 C 151.324219 29.421875 152.5 29.503906 153.214844 29.730469 Z M 153.214844 29.730469 "/>
<path style=" stroke:none;fill-rule:nonzero;fill:rgb(0%,0%,0%);fill-opacity:1;" d="M 52.03125 26.117188 C 51.1875 26.242188 50.554688 26.445312 49.734375 26.84375 C 48.867188 27.265625 48.296875 27.695312 47.746094 28.347656 C 47.550781 28.566406 47.363281 28.761719 47.332031 28.777344 C 47.289062 28.796875 47.257812 28.242188 47.257812 27.542969 L 47.257812 26.273438 L 43.28125 26.273438 L 43.28125 44.496094 L 47.414062 44.496094 L 47.4375 39.425781 C 47.46875 34.523438 47.476562 34.351562 47.648438 33.714844 C 47.941406 32.652344 48.3125 31.984375 48.964844 31.367188 C 49.980469 30.414062 51.082031 30.007812 52.722656 29.992188 L 53.671875 29.984375 L 53.671875 26.03125 L 53.089844 26.039062 C 52.765625 26.046875 52.285156 26.078125 52.03125 26.117188 Z M 52.03125 26.117188 "/>
<path style=" stroke:none;fill-rule:nonzero;fill:rgb(0%,0%,0%);fill-opacity:1;" d="M 62.808594 26.117188 C 59.894531 26.542969 57.375 28.371094 56.035156 31.046875 C 55.734375 31.660156 55.328125 32.839844 55.257812 33.351562 C 55.152344 34.007812 55.125 34.390625 55.125 35.34375 C 55.125 36.710938 55.183594 37.164062 55.460938 38.148438 C 56.230469 40.867188 58.375 43.09375 61.144531 44.070312 C 63.394531 44.859375 66.535156 44.902344 68.785156 44.160156 C 69.570312 43.902344 70.554688 43.414062 71.132812 42.980469 C 71.714844 42.550781 72.429688 41.898438 72.429688 41.800781 C 72.429688 41.738281 70.246094 39.207031 70.1875 39.207031 C 70.164062 39.207031 69.914062 39.410156 69.613281 39.65625 C 68.953125 40.191406 67.988281 40.6875 67.113281 40.921875 C 66.585938 41.070312 66.226562 41.101562 65.246094 41.109375 C 63.800781 41.109375 63.269531 41.003906 62.117188 40.453125 C 60.792969 39.816406 59.828125 38.671875 59.40625 37.261719 C 59.332031 37.019531 59.277344 36.792969 59.277344 36.75 C 59.277344 36.71875 62.484375 36.683594 66.414062 36.683594 L 73.550781 36.683594 L 73.601562 36.433594 C 73.671875 36.035156 73.65625 34.847656 73.558594 34.042969 C 73.167969 30.871094 71.546875 28.40625 68.929688 27.046875 C 68.070312 26.597656 67.175781 26.304688 66.21875 26.152344 C 65.429688 26.023438 63.605469 26.003906 62.808594 26.117188 Z M 66.054688 29.65625 C 67.339844 30 68.566406 30.992188 69.117188 32.128906 C 69.433594 32.773438 69.710938 33.707031 69.628906 33.839844 C 69.597656 33.886719 67.648438 33.917969 64.425781 33.917969 L 59.277344 33.917969 L 59.277344 33.707031 C 59.277344 33.375 59.664062 32.292969 59.972656 31.796875 C 60.347656 31.171875 61.191406 30.398438 61.867188 30.0625 C 62.378906 29.804688 63.027344 29.59375 63.621094 29.496094 C 64.066406 29.429688 65.5625 29.519531 66.054688 29.65625 Z M 66.054688 29.65625 "/>
<path style=" stroke:none;fill-rule:nonzero;fill:rgb(0%,0%,0%);fill-opacity:1;" d="M 83.839844 26.152344 C 80.023438 26.828125 77.171875 29.671875 76.480469 33.511719 C 76.320312 34.425781 76.335938 36.554688 76.523438 37.417969 C 77.351562 41.296875 80.316406 43.964844 84.488281 44.582031 C 85.445312 44.722656 87.5 44.699219 88.46875 44.535156 C 90.433594 44.210938 92.152344 43.355469 93.316406 42.160156 L 93.6875 41.769531 L 92.59375 40.507812 C 91.984375 39.816406 91.472656 39.238281 91.4375 39.230469 C 91.414062 39.214844 91.140625 39.417969 90.820312 39.671875 C 87.949219 41.996094 83.179688 41.515625 81.320312 38.71875 C 80.941406 38.140625 80.558594 37.222656 80.550781 36.863281 L 80.550781 36.683594 L 94.816406 36.683594 L 94.867188 36.050781 C 94.957031 34.847656 94.726562 33.105469 94.320312 31.917969 C 93.550781 29.632812 91.738281 27.65625 89.605469 26.769531 C 88.34375 26.242188 87.574219 26.09375 85.949219 26.0625 C 84.941406 26.046875 84.285156 26.070312 83.839844 26.152344 Z M 86.820312 29.558594 C 87.898438 29.769531 88.777344 30.21875 89.472656 30.917969 C 90.171875 31.617188 90.714844 32.660156 90.832031 33.496094 L 90.886719 33.917969 L 80.460938 33.917969 L 80.519531 33.609375 C 80.605469 33.105469 80.875 32.359375 81.125 31.917969 C 82.167969 30.082031 84.496094 29.113281 86.820312 29.558594 Z M 86.820312 29.558594 "/>
<path style=" stroke:none;fill-rule:nonzero;fill:rgb(0%,0%,0%);fill-opacity:1;" d="M 106.234375 26.144531 C 104.855469 26.402344 103.53125 27.015625 102.570312 27.828125 C 102.246094 28.097656 101.988281 28.347656 101.988281 28.386719 C 101.988281 28.4375 101.929688 28.46875 101.867188 28.46875 C 101.761719 28.46875 101.742188 28.289062 101.742188 27.371094 L 101.742188 26.273438 L 97.765625 26.273438 L 97.765625 44.496094 L 101.898438 44.496094 L 101.921875 39.222656 C 101.953125 34.113281 101.960938 33.945312 102.132812 33.324219 C 102.636719 31.503906 103.8125 30.347656 105.640625 29.886719 C 106.339844 29.707031 107.703125 29.707031 108.394531 29.886719 C 109.929688 30.285156 110.945312 31.375 111.285156 33.007812 C 111.390625 33.511719 111.40625 34.472656 111.40625 39.050781 L 111.40625 44.496094 L 115.628906 44.496094 L 115.628906 39.050781 C 115.628906 33.480469 115.589844 32.441406 115.304688 31.308594 C 114.808594 29.285156 113.566406 27.671875 111.851562 26.835938 C 110.652344 26.25 109.953125 26.101562 108.238281 26.0625 C 107.265625 26.046875 106.640625 26.070312 106.234375 26.144531 Z M 106.234375 26.144531 "/>
<path style=" stroke:none;fill-rule:nonzero;fill:rgb(0%,0%,0%);fill-opacity:1;" d="M 23.667969 31.007812 C 23.183594 31.277344 22.734375 32 22.734375 32.535156 C 22.734375 33.21875 23.117188 33.894531 23.660156 34.164062 C 23.988281 34.320312 24.15625 34.328125 26.453125 34.328125 L 28.90625 34.328125 L 28.90625 38.476562 L 32 38.476562 L 31.976562 35.277344 L 31.953125 32.074219 L 31.707031 31.675781 C 31.570312 31.457031 31.335938 31.195312 31.1875 31.097656 L 30.914062 30.910156 L 27.371094 30.910156 C 24.945312 30.917969 23.785156 30.941406 23.667969 31.007812 Z M 23.667969 31.007812 "/>
<path style=" stroke:none;fill-rule:nonzero;fill:rgb(0%,0%,0%);fill-opacity:1;" d="M 32.5625 41.363281 L 32.5625 43.113281 L 35.746094 43.113281 C 38.78125 43.113281 38.945312 43.101562 39.269531 42.949219 C 40.445312 42.378906 40.445312 40.347656 39.269531 39.777344 C 38.945312 39.621094 38.78125 39.613281 35.746094 39.613281 L 32.5625 39.613281 Z M 32.5625 41.363281 "/>
<path style=" stroke:none;fill-rule:nonzero;fill:rgb(0%,0%,0%);fill-opacity:1;" d="M 142.832031 56.738281 L 142.832031 62.390625 L 143.804688 62.390625 L 143.804688 61.699219 C 143.804688 61.316406 143.835938 61.007812 143.878906 61.007812 C 143.917969 61.007812 144.046875 61.136719 144.164062 61.292969 C 144.707031 62 145.800781 62.472656 146.921875 62.472656 C 149.269531 62.472656 150.894531 60.828125 150.902344 58.445312 C 150.902344 58.039062 150.851562 57.507812 150.796875 57.265625 C 150.382812 55.53125 148.800781 54.335938 146.929688 54.335938 C 145.835938 54.335938 144.992188 54.679688 144.277344 55.417969 L 143.886719 55.808594 L 143.886719 51.082031 L 142.832031 51.082031 Z M 148.214844 55.597656 C 148.78125 55.882812 149.269531 56.386719 149.554688 57.003906 C 149.75 57.417969 149.773438 57.558594 149.773438 58.402344 C 149.773438 59.242188 149.75 59.386719 149.5625 59.796875 C 149.269531 60.414062 148.863281 60.84375 148.253906 61.179688 C 147.757812 61.445312 147.710938 61.453125 146.851562 61.453125 C 146.039062 61.453125 145.917969 61.429688 145.503906 61.226562 C 144.941406 60.957031 144.429688 60.421875 144.144531 59.804688 C 143.953125 59.386719 143.925781 59.25 143.925781 58.402344 C 143.925781 57.507812 143.933594 57.445312 144.195312 56.921875 C 144.511719 56.273438 145.089844 55.71875 145.695312 55.476562 C 146.046875 55.34375 146.265625 55.3125 146.929688 55.335938 C 147.636719 55.363281 147.808594 55.394531 148.214844 55.597656 Z M 148.214844 55.597656 "/>
<path style=" stroke:none;fill-rule:nonzero;fill:rgb(0%,0%,0%);fill-opacity:1;" d="M 152.722656 51.328125 C 152.5 51.554688 152.476562 51.621094 152.519531 51.921875 C 152.597656 52.523438 153.152344 52.800781 153.703125 52.507812 C 153.972656 52.375 154.035156 52.238281 154.035156 51.855469 C 154.035156 51.472656 153.972656 51.335938 153.703125 51.207031 C 153.328125 51.011719 152.996094 51.050781 152.722656 51.328125 Z M 152.722656 51.328125 "/>
<path style=" stroke:none;fill-rule:nonzero;fill:rgb(0%,0%,0%);fill-opacity:1;" d="M 156.308594 56.738281 L 156.308594 62.390625 L 157.367188 62.390625 L 157.367188 51.082031 L 156.308594 51.082031 Z M 156.308594 56.738281 "/>
<path style=" stroke:none;fill-rule:nonzero;fill:rgb(0%,0%,0%);fill-opacity:1;" d="M 159.949219 51.207031 C 159.484375 51.464844 159.492188 52.261719 159.972656 52.507812 C 160.769531 52.921875 161.570312 52.035156 160.996094 51.367188 C 160.777344 51.097656 160.265625 51.027344 159.949219 51.207031 Z M 159.949219 51.207031 "/>
<path style=" stroke:none;fill-rule:nonzero;fill:rgb(0%,0%,0%);fill-opacity:1;" d="M 163.78125 53.523438 L 163.78125 54.417969 L 162.320312 54.417969 L 162.320312 55.3125 L 163.773438 55.3125 L 163.796875 58.175781 C 163.820312 60.941406 163.828125 61.0625 164 61.371094 C 164.398438 62.113281 164.925781 62.40625 165.933594 62.453125 C 166.53125 62.480469 166.746094 62.453125 167.125 62.316406 C 167.765625 62.066406 167.824219 61.976562 167.613281 61.527344 L 167.433594 61.167969 L 167.09375 61.355469 C 166.832031 61.488281 166.605469 61.535156 166.199219 61.535156 C 165.550781 61.535156 165.289062 61.382812 165.023438 60.84375 C 164.84375 60.496094 164.835938 60.421875 164.835938 57.898438 L 164.835938 55.3125 L 167.273438 55.3125 L 167.273438 54.417969 L 164.835938 54.417969 L 164.835938 52.628906 L 163.78125 52.628906 Z M 163.78125 53.523438 "/>
<path style=" stroke:none;fill-rule:nonzero;fill:rgb(0%,0%,0%);fill-opacity:1;" d="M 120.746094 54.441406 C 120.128906 54.621094 119.617188 54.921875 119.234375 55.328125 C 119.03125 55.539062 118.859375 55.71875 118.851562 55.71875 C 118.84375 55.71875 118.84375 55.425781 118.859375 55.070312 L 118.894531 54.417969 L 117.820312 54.417969 L 117.820312 62.390625 L 118.859375 62.390625 L 118.894531 59.84375 C 118.933594 56.957031 118.957031 56.824219 119.574219 56.132812 C 120.023438 55.636719 120.589844 55.386719 121.351562 55.328125 C 122.457031 55.257812 123.171875 55.628906 123.59375 56.5 L 123.871094 57.0625 L 123.894531 59.722656 L 123.925781 62.390625 L 124.957031 62.390625 L 124.984375 59.84375 C 125.015625 56.964844 125.039062 56.835938 125.671875 56.125 C 126.183594 55.550781 126.6875 55.355469 127.644531 55.355469 C 128.539062 55.355469 128.878906 55.484375 129.375 56.035156 C 129.878906 56.597656 129.921875 56.875 129.921875 59.804688 L 129.921875 62.390625 L 131.058594 62.390625 L 131.058594 59.925781 C 131.058594 58.574219 131.015625 57.234375 130.976562 56.941406 C 130.796875 55.816406 130.148438 54.945312 129.199219 54.566406 C 128.808594 54.410156 128.597656 54.378906 127.769531 54.386719 C 126.957031 54.386719 126.722656 54.417969 126.347656 54.566406 C 125.769531 54.800781 125.195312 55.222656 124.894531 55.648438 L 124.648438 55.972656 L 124.457031 55.664062 C 124.148438 55.191406 123.757812 54.859375 123.222656 54.613281 C 122.816406 54.425781 122.605469 54.386719 121.921875 54.359375 C 121.425781 54.34375 120.972656 54.378906 120.746094 54.441406 Z M 120.746094 54.441406 "/>
<path style=" stroke:none;fill-rule:nonzero;fill:rgb(0%,0%,0%);fill-opacity:1;" d="M 135.710938 54.457031 C 135.027344 54.644531 134.46875 54.972656 133.964844 55.484375 C 132.398438 57.046875 132.40625 59.769531 133.972656 61.339844 C 134.742188 62.113281 135.667969 62.472656 136.863281 62.472656 C 138.105469 62.472656 139.113281 62.054688 139.882812 61.21875 C 140.460938 60.601562 140.777344 59.925781 140.898438 59.070312 C 141.214844 56.898438 140.011719 54.988281 138 54.457031 C 137.40625 54.304688 136.277344 54.3125 135.710938 54.457031 Z M 137.992188 55.484375 C 138.617188 55.710938 139.191406 56.265625 139.519531 56.921875 C 139.777344 57.445312 139.785156 57.507812 139.785156 58.402344 C 139.785156 59.25 139.761719 59.386719 139.566406 59.804688 C 139.28125 60.421875 138.769531 60.957031 138.210938 61.226562 C 137.796875 61.429688 137.675781 61.453125 136.863281 61.453125 C 136.089844 61.453125 135.921875 61.429688 135.597656 61.265625 C 134.960938 60.949219 134.582031 60.558594 134.246094 59.882812 C 133.957031 59.289062 133.9375 59.234375 133.9375 58.453125 C 133.9375 57.867188 133.980469 57.507812 134.085938 57.207031 C 134.363281 56.410156 135.042969 55.726562 135.847656 55.453125 C 136.390625 55.257812 137.4375 55.273438 137.992188 55.484375 Z M 137.992188 55.484375 "/>
<path style=" stroke:none;fill-rule:nonzero;fill:rgb(0%,0%,0%);fill-opacity:1;" d="M 152.738281 58.402344 L 152.738281 62.390625 L 153.792969 62.390625 L 153.792969 54.417969 L 152.738281 54.417969 Z M 152.738281 58.402344 "/>
<path style=" stroke:none;fill-rule:nonzero;fill:rgb(0%,0%,0%);fill-opacity:1;" d="M 159.800781 58.402344 L 159.800781 62.390625 L 160.9375 62.390625 L 160.9375 54.417969 L 159.800781 54.417969 Z M 159.800781 58.402344 "/>
<path style=" stroke:none;fill-rule:nonzero;fill:rgb(0%,0%,0%);fill-opacity:1;" d="M 168.441406 54.679688 C 168.5 54.824219 169.300781 56.621094 170.21875 58.671875 L 171.890625 62.398438 L 171.617188 63.007812 C 171.460938 63.351562 171.226562 63.765625 171.089844 63.933594 C 170.585938 64.578125 169.601562 64.683594 168.816406 64.195312 L 168.410156 63.945312 L 168.164062 64.324219 L 167.921875 64.707031 L 168.179688 64.925781 C 168.570312 65.261719 169.15625 65.433594 169.917969 65.433594 C 170.472656 65.433594 170.648438 65.390625 171.03125 65.203125 C 171.558594 64.953125 171.972656 64.503906 172.316406 63.828125 C 172.5 63.472656 176.277344 55.078125 176.503906 54.515625 C 176.535156 54.433594 176.421875 54.417969 176 54.433594 L 175.457031 54.457031 L 173.988281 57.769531 C 173.175781 59.601562 172.492188 61.089844 172.46875 61.089844 C 172.4375 61.089844 171.753906 59.601562 170.941406 57.769531 L 169.472656 54.457031 L 168.894531 54.433594 L 168.320312 54.410156 Z M 168.441406 54.679688 "/>
</g>
</svg>
