<?xml version="1.0" standalone="no"?>
<!DOCTYPE svg PUBLIC "-//W3C//DTD SVG 20010904//EN"
 "http://www.w3.org/TR/2001/REC-SVG-20010904/DTD/svg10.dtd">
<svg version="1.0" xmlns="http://www.w3.org/2000/svg"
 width="2500.000000pt" height="971.000000pt" viewBox="0 0 2500.000000 971.000000"
 preserveAspectRatio="xMidYMid meet">

<g transform="translate(0.000000,971.000000) scale(0.100000,-0.100000)"
fill="#000000" stroke="none">
<path d="M22220 7973 l0 -58 82 0 83 0 3 -247 2 -248 65 0 65 0 2 248 3 247
83 3 82 3 0 54 0 55 -235 0 -235 0 0 -57z"/>
<path d="M22790 7725 l0 -305 61 0 61 0 -4 212 c-2 116 -3 207 -1 202 2 -5 32
-88 66 -184 l63 -175 33 -3 c19 -2 37 0 42 5 5 5 37 89 72 186 l64 177 -5
-210 -5 -210 62 0 61 0 0 305 0 305 -75 0 c-41 0 -75 -1 -75 -3 0 -2 -107
-315 -126 -367 -3 -8 -25 41 -48 110 -24 69 -55 154 -68 190 l-25 65 -76 3
-77 3 0 -306z"/>
<path d="M20180 5800 l0 -1560 260 0 260 0 0 1560 0 1560 -260 0 -260 0 0
-1560z"/>
<path d="M21230 5800 l0 -1560 260 0 260 0 0 1560 0 1560 -260 0 -260 0 0
-1560z"/>
<path d="M16048 7219 c-283 -22 -543 -112 -778 -267 -116 -76 -308 -270 -389
-391 -180 -272 -264 -582 -248 -921 15 -304 90 -537 255 -785 80 -121 242
-287 361 -370 271 -189 595 -285 961 -285 440 1 816 145 1090 418 l75 75 -115
109 c-63 60 -143 134 -177 164 l-62 56 -76 -67 c-207 -180 -406 -261 -671
-272 -629 -27 -1094 412 -1094 1032 0 284 88 516 270 709 204 216 457 320 780
319 275 -1 491 -81 706 -263 l84 -72 53 46 c28 25 107 98 175 163 l123 118
-46 52 c-98 111 -279 237 -441 308 -231 100 -549 147 -836 124z"/>
<path d="M2805 7189 c-150 -22 -310 -80 -440 -159 -268 -163 -503 -459 -613
-771 -127 -360 -118 -820 23 -1174 41 -104 76 -170 143 -270 180 -273 424
-468 692 -554 162 -52 178 -54 664 -58 253 -3 479 -2 504 2 30 4 56 17 82 41
62 56 73 90 78 246 l5 137 -559 3 c-624 4 -602 2 -762 78 -114 54 -163 90
-262 190 -141 141 -233 300 -286 495 -26 94 -28 112 -28 305 0 191 2 212 27
305 98 366 371 656 702 747 76 20 106 22 560 27 479 6 480 6 512 29 122 87
113 306 -17 372 -38 19 -56 20 -502 19 -255 -1 -490 -5 -523 -10z"/>
<path d="M4010 6745 l0 -215 378 0 c207 0 394 5 416 9 79 19 139 107 140 206
0 75 -31 144 -82 183 l-35 27 -409 3 -408 3 0 -216z"/>
<path d="M18535 6509 c-294 -25 -541 -141 -733 -343 -157 -165 -248 -352 -287
-586 -21 -122 -16 -383 9 -493 43 -187 134 -361 260 -494 216 -229 466 -344
819 -375 304 -27 601 35 823 171 79 49 214 164 214 183 0 6 -62 80 -137 167
-75 86 -138 158 -140 160 -1 2 -23 -15 -48 -37 -168 -155 -421 -232 -670 -202
-185 22 -319 80 -433 185 -37 35 -83 89 -102 121 -36 60 -92 212 -84 226 3 4
402 8 886 8 l881 0 -6 183 c-8 248 -42 393 -129 557 -212 398 -634 612 -1123
569z m334 -454 c219 -70 378 -251 416 -473 l7 -42 -636 0 c-732 0 -653 -15
-611 117 72 230 255 385 497 422 94 14 239 4 327 -24z"/>
<path d="M6408 6499 c-104 -15 -182 -40 -283 -89 -107 -52 -177 -105 -245
-185 -24 -27 -47 -51 -51 -53 -5 -2 -9 66 -9 152 l0 156 -245 0 -245 0 0
-1120 0 -1120 254 0 255 0 3 623 c4 603 5 624 26 702 36 131 82 213 162 289
125 117 261 167 463 169 l117 1 0 243 0 243 -72 -1 c-40 -1 -99 -5 -130 -10z"/>
<path d="M7735 6499 c-359 -52 -669 -277 -834 -606 -37 -75 -87 -220 -96 -283
-13 -81 -16 -128 -16 -245 0 -168 7 -224 41 -345 95 -334 359 -608 700 -728
277 -97 664 -102 941 -11 97 32 218 92 289 145 72 53 160 133 160 145 0 8
-269 319 -276 319 -3 0 -34 -25 -71 -55 -81 -66 -200 -127 -308 -156 -65 -18
-109 -22 -230 -23 -178 0 -243 13 -385 81 -163 78 -282 219 -334 392 -9 30
-16 58 -16 63 0 4 395 8 879 8 l879 0 6 31 c9 49 7 195 -5 294 -48 390 -248
693 -570 860 -106 55 -216 91 -334 110 -97 16 -322 18 -420 4z m400 -435 c158
-42 309 -164 377 -304 39 -79 73 -194 63 -210 -4 -6 -244 -10 -641 -10 l-634
0 0 26 c0 41 48 174 86 235 46 77 150 172 233 213 63 32 143 58 216 70 55 8
239 -3 300 -20z"/>
<path d="M10325 6495 c-470 -83 -821 -433 -906 -905 -20 -112 -18 -374 5 -480
102 -477 467 -805 981 -881 118 -17 371 -14 490 6 242 40 454 145 597 292 l46
48 -135 155 c-75 85 -138 156 -142 157 -3 2 -37 -23 -76 -54 -354 -286 -941
-227 -1170 117 -47 71 -94 184 -95 228 l0 22 879 0 878 0 6 78 c11 148 -17
362 -67 508 -95 281 -318 524 -581 633 -155 65 -250 83 -450 87 -124 2 -205
-1 -260 -11z m367 -419 c133 -26 241 -81 327 -167 86 -86 153 -214 167 -317
l7 -52 -642 0 -642 0 7 38 c11 62 44 154 75 208 128 226 415 345 701 290z"/>
<path d="M13083 6496 c-170 -32 -333 -107 -451 -207 -40 -33 -72 -64 -72 -69
0 -6 -7 -10 -15 -10 -13 0 -15 22 -15 135 l0 135 -245 0 -245 0 0 -1120 0
-1120 254 0 255 0 3 648 c4 628 5 649 26 725 62 224 207 366 432 423 86 22
254 22 339 0 189 -49 314 -183 356 -384 13 -62 15 -180 15 -743 l0 -669 260 0
260 0 0 669 c0 685 -5 813 -40 952 -61 249 -214 447 -425 550 -148 72 -234 90
-445 95 -120 2 -197 -1 -247 -10z"/>
<path d="M2915 5898 c-60 -33 -115 -122 -115 -188 0 -84 47 -167 114 -200 40
-19 61 -20 344 -20 l302 0 0 -255 0 -255 191 0 190 0 -3 393 -3 394 -30 49
c-17 27 -46 59 -64 71 l-34 23 -436 0 c-299 -1 -442 -4 -456 -12z"/>
<path d="M4010 4625 l0 -215 392 0 c374 0 394 1 434 20 145 70 145 320 0 390
-40 19 -60 20 -434 20 l-392 0 0 -215z"/>
<path d="M17590 2735 l0 -695 60 0 60 0 0 85 c0 47 4 85 9 85 5 0 21 -16 35
-35 67 -87 202 -145 340 -145 289 0 489 202 490 495 0 50 -6 115 -13 145 -51
213 -246 360 -476 360 -135 0 -239 -42 -327 -133 l-48 -48 0 290 0 291 -65 0
-65 0 0 -695z m663 140 c70 -35 130 -97 165 -173 24 -51 27 -68 27 -172 0
-103 -3 -121 -26 -171 -36 -76 -86 -129 -161 -170 -61 -33 -67 -34 -173 -34
-100 0 -115 3 -166 28 -69 33 -132 99 -167 175 -24 51 -27 68 -27 172 0 110 1
118 33 182 39 80 110 148 185 178 43 16 70 20 152 17 87 -3 108 -7 158 -32z"/>
<path d="M18808 3400 c-27 -28 -30 -36 -25 -73 10 -74 78 -108 146 -72 33 16
41 33 41 80 0 47 -8 64 -41 80 -46 24 -87 19 -121 -15z"/>
<path d="M19250 2735 l0 -695 65 0 65 0 0 695 0 695 -65 0 -65 0 0 -695z"/>
<path d="M19698 3415 c-57 -32 -56 -130 3 -160 98 -51 197 58 126 140 -27 33
-90 42 -129 20z"/>
<path d="M20170 3130 l0 -110 -90 0 -90 0 0 -55 0 -55 90 0 89 0 3 -352 c3
-340 4 -355 25 -393 49 -91 114 -127 238 -133 74 -3 100 0 147 17 79 31 86 42
60 97 l-22 44 -42 -23 c-32 -16 -60 -22 -110 -22 -80 0 -112 19 -145 85 -22
43 -23 52 -23 362 l0 318 150 0 150 0 0 55 0 55 -150 0 -150 0 0 110 0 110
-65 0 -65 0 0 -110z"/>
<path d="M14870 3017 c-76 -22 -139 -59 -186 -109 -25 -26 -46 -48 -47 -48 -1
0 -1 36 1 80 l4 80 -66 0 -66 0 0 -490 0 -490 64 0 64 0 4 313 c5 355 8 371
84 456 55 61 125 92 219 99 136 9 224 -37 276 -144 l34 -69 3 -327 4 -328 63
0 64 0 3 313 c4 354 7 370 85 457 63 71 125 95 243 95 110 0 152 -16 213 -84
62 -69 67 -103 67 -463 l0 -318 70 0 70 0 0 303 c0 166 -5 331 -10 367 -22
138 -102 245 -219 292 -48 19 -74 23 -176 22 -100 0 -129 -4 -175 -22 -71 -29
-142 -81 -179 -133 l-30 -40 -24 38 c-38 58 -86 99 -152 129 -50 23 -76 28
-160 31 -61 2 -117 -2 -145 -10z"/>
<path d="M16713 3015 c-84 -23 -153 -63 -215 -126 -193 -192 -192 -527 1 -720
95 -95 209 -139 356 -139 153 0 277 51 372 154 71 76 110 159 125 264 39 267
-109 502 -357 567 -73 19 -212 18 -282 0z m281 -126 c77 -28 148 -96 188 -177
32 -64 33 -72 33 -182 0 -104 -3 -121 -27 -172 -35 -76 -98 -142 -167 -175
-51 -25 -66 -28 -166 -28 -95 0 -116 3 -156 23 -78 39 -125 87 -166 170 -36
73 -38 80 -38 176 0 72 5 116 18 153 34 98 118 182 217 216 67 24 196 22 264
-4z"/>
<path d="M18810 2530 l0 -490 65 0 65 0 0 490 0 490 -65 0 -65 0 0 -490z"/>
<path d="M19680 2530 l0 -490 70 0 70 0 0 490 0 490 -70 0 -70 0 0 -490z"/>
<path d="M20744 2988 c7 -18 106 -239 219 -491 l206 -458 -34 -75 c-19 -42
-48 -93 -65 -114 -62 -79 -183 -92 -280 -32 l-50 31 -30 -47 -30 -47 32 -27
c48 -41 120 -62 214 -62 68 0 90 5 137 28 65 31 116 86 158 169 23 44 488
1076 516 1145 4 10 -10 12 -62 10 l-67 -3 -181 -407 c-100 -225 -184 -408
-187 -408 -4 0 -88 183 -188 408 l-181 407 -71 3 -71 3 15 -33z"/>
</g>
</svg>
